#!OML:ASF X:\für Bonn\!DataBase\2005_08_10_Bjorn_Final\c3d\bjorn.ASF
:FULLY-SPECIFIED
:DEGREES
32
root -22.824 18.8541 -28.0947 -172.99 -182.902 -178.007
lowerback -5.42677 3.14338 -6.36756
upperback 8.03005 5.67489 -6.73541
thorax 11.9026 2.56311 -2.90534
lowerneck -3.0513 0.17801 -0.0484369
upperneck 15.4558 -0.230095 3.57491
head 5.14601 0.117855 1.10755
rclavicle -9.54166e-015 -4.77083e-015
rhumerus -35.7128 -1.55673 -100.085
rradius 47.8298
rwrist -5.61633
rhand -17.1334 17.2333
rfingers 7.12502
rthumb 9.1066 -12.5501
lclavicle -9.54166e-015 -4.77083e-015
lhumerus -33.3846 -17.2217 88.5438
lradius 52.0056
lwrist -14.0561
lhand -23.4734 -15.8733
lfingers 7.12502
lthumb 2.98594 14.0856
rfemur -12.9265 -13.5134 15.6204
rtibia 41.1354
rfoot -27.834 1.47425
rtoes -15.9353
lfemur -12.0856 11.1721 -23.5577
ltibia 34.6116
lfoot -24.2091 -8.11164
ltoes -7.21864
33
root -22.8049 18.8389 -28.0489 -173.022 -182.75 -177.969
lowerback -5.23485 3.10611 -6.42222
upperback 8.05095 5.61263 -6.77355
thorax 11.808 2.53305 -2.93599
lowerneck -2.98277 0.193791 -0.0745656
upperneck 15.3358 -0.209953 3.62079
head 5.09679 0.126534 1.12633
rclavicle -1.59028e-014 4.92986e-014
rhumerus -35.703 -1.65559 -100.165
rradius 47.0955
rwrist -5.75885
rhand -17.1258 17.1993
rfingers 7.12502
rthumb 9.11396 -12.5838
lclavicle -1.59028e-014 4.92986e-014
lhumerus -32.9585 -17.0652 88.424
lradius 52.0224
lwrist -13.8985
lhand -23.6216 -15.909
lfingers 7.12502
lthumb 2.84276 14.0518
rfemur -13.3822 -13.2913 15.4557
rtibia 42.2678
rfoot -27.5815 1.62985
rtoes -15.8649
lfemur -11.8622 11.0221 -23.6666
ltibia 34.6244
lfoot -24.5128 -7.70172
ltoes -7.94637
34
root -22.7855 18.8239 -28.0021 -173.055 -182.601 -177.954
lowerback -5.04501 3.08193 -6.41655
upperback 8.08172 5.56634 -6.84137
thorax 11.7357 2.51759 -3.0299
lowerneck -2.92155 0.198106 -0.0109465
upperneck 15.2055 -0.21282 3.67058
head 5.04632 0.129103 1.13017
rclavicle -2.78299e-014 -9.54166e-015
rhumerus -35.6265 -1.95468 -100.246
rradius 46.244
rwrist -5.68085
rhand -17.1174 17.1903
rfingers 7.12502
rthumb 9.12208 -12.5924
lclavicle -2.78299e-014 -9.54166e-015
lhumerus -32.5204 -17.0349 88.2502
lradius 52.1121
lwrist -13.6959
lhand -23.7362 -15.8875
lfingers 7.12502
lthumb 2.73208 14.0747
rfemur -13.8911 -13.0616 15.3212
rtibia 43.4461
rfoot -27.2602 1.89633
rtoes -15.7766
lfemur -11.6452 10.9504 -23.7495
ltibia 34.6509
lfoot -24.8313 -7.29481
ltoes -8.83585
35
root -22.7664 18.8076 -27.9538 -173.077 -182.485 -177.94
lowerback -4.86724 3.02494 -6.46047
upperback 8.11022 5.47501 -6.84719
thorax 11.6548 2.47194 -3.03398
lowerneck -2.81854 0.218341 -0.072603
upperneck 15.0546 -0.18192 3.7132
head 4.98149 0.140064 1.15405
rclavicle 7.15625e-015 1.74931e-014
rhumerus -35.6191 -2.1594 -100.24
rradius 45.4058
rwrist -5.65826
rhand -17.0486 17.1459
rfingers 7.12502
rthumb 9.18847 -12.6339
lclavicle 7.15625e-015 1.74931e-014
lhumerus -32.064 -16.8544 88.1627
lradius 52.2015
lwrist -13.5606
lhand -23.8393 -15.8655
lfingers 7.12502
lthumb 2.63259 14.098
rfemur -14.4794 -12.9101 15.1937
rtibia 44.6693
rfoot -26.9192 2.21494
rtoes -16.0532
lfemur -11.4293 10.7963 -23.8294
ltibia 34.6743
lfoot -25.1211 -6.90723
ltoes -9.48578
36
root -22.7461 18.792 -27.9045 -173.132 -182.39 -177.925
lowerback -4.65852 2.97674 -6.44846
upperback 8.18098 5.3948 -6.88613
thorax 11.6134 2.43821 -3.10541
lowerneck -2.81171 0.230614 -0.108442
upperneck 14.9108 -0.172522 3.80895
head 4.93573 0.146129 1.18924
rclavicle -8.18993e-014 3.65764e-014
rhumerus -35.5212 -2.47297 -100.27
rradius 44.4955
rwrist -5.54825
rhand -16.9175 17.0381
rfingers 7.12502
rthumb 9.31499 -12.7361
lclavicle -8.18993e-014 3.65764e-014
lhumerus -31.5635 -16.7881 88.0244
lradius 52.4054
lwrist -13.2836
lhand -23.9056 -15.8233
lfingers 7.12502
lthumb 2.56851 14.141
rfemur -15.0965 -12.7745 15.0641
rtibia 45.9228
rfoot -26.5891 2.5647
rtoes -16.4938
lfemur -11.1732 10.5667 -23.9146
ltibia 34.6898
lfoot -25.4155 -6.46005
ltoes -10.0942
37
root -22.7257 18.7755 -27.8542 -173.176 -182.308 -177.91
lowerback -4.45361 2.91114 -6.46588
upperback 8.25858 5.29036 -6.88097
thorax 11.5736 2.38714 -3.1151
lowerneck -2.82418 0.250066 -0.188946
upperneck 14.7846 -0.142904 3.84872
head 4.89817 0.156716 1.21563
rclavicle -2.62396e-014 7.95139e-015
rhumerus -35.4493 -2.73524 -100.216
rradius 43.5719
rwrist -5.34998
rhand -16.7636 16.8469
rfingers 7.12502
rthumb 9.46345 -12.9206
lclavicle -2.62396e-014 7.95139e-015
lhumerus -31.0193 -16.6657 87.9612
lradius 52.6241
lwrist -12.9682
lhand -23.9274 -15.8277
lfingers 7.12502
lthumb 2.54751 14.1368
rfemur -15.7981 -12.685 14.9369
rtibia 47.2124
rfoot -26.277 2.96023
rtoes -17.084
lfemur -10.9076 10.3775 -23.9937
ltibia 34.673
lfoot -25.6513 -6.08559
ltoes -10.5595
38
root -22.7066 18.7605 -27.8026 -173.231 -182.257 -177.89
lowerback -4.20869 2.85468 -6.45658
upperback 8.32463 5.19376 -6.91481
thorax 11.5031 2.34552 -3.18227
lowerneck -2.77067 0.252821 -0.183443
upperneck 14.6062 -0.142286 3.90502
head 4.83417 0.15744 1.23091
rclavicle -2.06736e-014 6.52014e-014
rhumerus -35.4088 -3.14989 -100.199
rradius 42.6553
rwrist -5.06878
rhand -16.5824 16.596
rfingers 7.12502
rthumb 9.63828 -13.1635
lclavicle -2.06736e-014 6.52014e-014
lhumerus -30.5055 -16.6565 87.8419
lradius 52.9422
lwrist -12.6685
lhand -23.9672 -15.795
lfingers 7.12502
lthumb 2.50904 14.17
rfemur -16.533 -12.5399 14.8286
rtibia 48.5235
rfoot -26.0774 3.3138
rtoes -17.7237
lfemur -10.6173 10.1769 -24.0679
ltibia 34.6292
lfoot -25.8771 -5.74566
ltoes -10.9554
39
root -22.6863 18.7471 -27.7482 -173.294 -182.18 -177.833
lowerback -3.97165 2.80133 -6.492
upperback 8.40442 5.10596 -6.93017
thorax 11.4477 2.30252 -3.20276
lowerneck -2.7511 0.2575 -0.265
upperneck 14.4617 -0.133861 3.9633
head 4.78605 0.158261 1.26189
rclavicle 3.81667e-014 -8.11041e-014
rhumerus -35.3906 -3.41476 -100.145
rradius 41.7553
rwrist -4.83724
rhand -16.4082 16.285
rfingers 7.12502
rthumb 9.80633 -13.4667
lclavicle 3.81667e-014 -8.11041e-014
lhumerus -29.9712 -16.6192 87.7769
lradius 53.3263
lwrist -12.4453
lhand -24.0035 -15.8115
lfingers 7.12502
lthumb 2.47398 14.1539
rfemur -17.2924 -12.3504 14.6695
rtibia 49.8281
rfoot -25.9149 3.76637
rtoes -18.3711
lfemur -10.3028 9.99903 -24.1957
ltibia 34.5781
lfoot -26.0983 -5.31858
ltoes -11.5636
40
root -22.6668 18.7327 -27.6939 -173.356 -182.157 -177.772
lowerback -3.71435 2.73094 -6.53278
upperback 8.49948 4.99463 -6.94327
thorax 11.3967 2.24751 -3.22154
lowerneck -2.78544 0.25365 -0.320252
upperneck 14.3181 -0.137551 4.00676
head 4.74771 0.154252 1.28346
rclavicle 3.73715e-014 -1.59028e-015
rhumerus -35.3641 -3.72995 -100.087
rradius 40.9026
rwrist -4.58702
rhand -16.2342 15.9533
rfingers 7.12502
rthumb 9.97418 -13.7904
lclavicle 3.73715e-014 -1.59028e-015
lhumerus -29.3271 -16.6256 87.7005
lradius 53.6328
lwrist -12.2742
lhand -24.3001 -15.8414
lfingers 7.12502
lthumb 2.18752 14.1271
rfemur -18.0758 -12.1798 14.5224
rtibia 51.0877
rfoot -25.7043 4.34481
rtoes -18.7542
lfemur -9.99963 9.79171 -24.3114
ltibia 34.5502
lfoot -26.2864 -4.99156
ltoes -11.7639
41
root -22.6481 18.7124 -27.6387 -173.417 -182.145 -177.71
lowerback -3.44298 2.65657 -6.56559
upperback 8.58136 4.87402 -6.95893
thorax 11.3226 2.18926 -3.24832
lowerneck -2.74191 0.264653 -0.358626
upperneck 14.1212 -0.11855 4.03945
head 4.67943 0.160131 1.29945
rclavicle -2.78299e-014 5.08889e-014
rhumerus -35.4038 -3.96226 -100.033
rradius 40.095
rwrist -4.39054
rhand -16.0793 15.6239
rfingers 7.12502
rthumb 10.1237 -14.1125
lclavicle -2.78299e-014 5.08889e-014
lhumerus -28.66 -16.5949 87.6214
lradius 53.887
lwrist -12.1578
lhand -24.6814 -16.1093
lfingers 7.12502
lthumb 1.81929 13.8627
rfemur -18.8589 -11.9847 14.3925
rtibia 52.2552
rfoot -25.4778 5.0331
rtoes -18.8711
lfemur -9.72539 9.53514 -24.4347
ltibia 34.5708
lfoot -26.4965 -4.62603
ltoes -11.9543
42
root -22.6299 18.6872 -27.5817 -173.478 -182.131 -177.65
lowerback -3.18993 2.58922 -6.6131
upperback 8.66807 4.76476 -6.95486
thorax 11.2623 2.13353 -3.24261
lowerneck -2.7527 0.259958 -0.454828
upperneck 13.9756 -0.123214 4.10991
head 4.63646 0.154917 1.336
rclavicle -7.15625e-015 2.8625e-014
rhumerus -35.4623 -4.26447 -99.9363
rradius 39.3101
rwrist -4.19072
rhand -15.8642 15.2249
rfingers 7.12502
rthumb 10.3312 -14.5013
lclavicle -7.15625e-015 2.8625e-014
lhumerus -27.9869 -16.609 87.5597
lradius 54.2086
lwrist -11.9968
lhand -25.0657 -16.4792
lfingers 7.12502
lthumb 1.4481 13.4956
rfemur -19.6366 -11.7988 14.2644
rtibia 53.3271
rfoot -25.2613 5.91465
rtoes -18.4144
lfemur -9.46638 9.34135 -24.552
ltibia 34.6498
lfoot -26.77 -4.26243
ltoes -12.4297
43
root -22.6138 18.6607 -27.5243 -173.528 -182.159 -177.582
lowerback -2.92287 2.50366 -6.66598
upperback 8.74935 4.63006 -6.96216
thorax 11.1879 2.06599 -3.24928
lowerneck -2.7319 0.255342 -0.498549
upperneck 13.789 -0.124744 4.13877
head 4.57576 0.150702 1.3508
rclavicle 2.38542e-015 -4.29375e-014
rhumerus -35.5423 -4.56614 -99.8503
rradius 38.4822
rwrist -3.96152
rhand -15.6125 14.8027
rfingers 7.12502
rthumb 10.5739 -14.9113
lclavicle 2.38542e-015 -4.29375e-014
lhumerus -27.3207 -16.6145 87.4601
lradius 54.6185
lwrist -11.8384
lhand -25.3953 -16.8651
lfingers 7.12502
lthumb 1.12981 13.1117
rfemur -20.4323 -11.6231 14.1552
rtibia 54.3059
rfoot -25.0464 7.01703
rtoes -17.3898
lfemur -9.24549 9.13105 -24.6612
ltibia 34.7695
lfoot -27.0214 -3.98624
ltoes -12.4513
